<svg width="1005" height="258" viewBox="0 0 1005 258" fill="none" xmlns="http://www.w3.org/2000/svg">
<path d="M48.7959 244.304L116.755 203.122H95.5707L46.917 227.029L48.7959 244.304Z" fill="url(#paint0_linear_7346_10659)" fill-opacity="0.9"/>
<path d="M116.753 203.122V212.117L48.7939 253.3V242.468L116.753 203.122Z" fill="url(#paint1_linear_7346_10659)" fill-opacity="0.95"/>
<path d="M3.68359 253.297H48.7906L118.998 125.942L116.786 49.8623L3.68359 253.297Z" fill="url(#paint2_linear_7346_10659)" fill-opacity="0.95"/>
<path d="M116.452 130.552L116.787 49.8623L206.891 212.248H161.671L116.452 130.552Z" fill="url(#paint3_linear_7346_10659)" fill-opacity="0.9"/>
<path d="M116.789 49.8623V66.2694L173.23 151.58L116.789 49.8623Z" fill="url(#paint4_linear_7346_10659)" fill-opacity="0.95"/>
<path d="M116.874 49.8623V66.2694L60.4336 151.58L116.874 49.8623Z" fill="#0E0E10"/>
<path d="M103.567 186.955H116.451V163.736L103.567 186.955Z" fill="url(#paint5_linear_7346_10659)" fill-opacity="0.9"/>
<path d="M116.452 163.736V186.955H129.336L116.452 163.736Z" fill="url(#paint6_linear_7346_10659)" fill-opacity="0.95"/>
<path d="M256.551 214.188V49.4202H288.426V214.188H256.551ZM445.29 214.188L373.804 128.171L443.415 49.4202H483.259L405.68 134.968L405.914 120.203L485.837 214.188H445.29ZM345.679 214.188V49.4202H377.554V214.188H345.679ZM509.367 214.188L575.696 49.4202H601.712L667.807 214.188H633.822L582.727 78.9519H594.446L542.648 214.188H509.367ZM544.523 183.485V156.766H633.119V183.485H544.523Z" fill="url(#paint7_linear_7346_10659)"/>
<rect x="710.829" y="0.000488281" width="293.33" height="254.734" rx="15.2856" fill="#7A73FF"/>
<path d="M745.888 214.368V101.163H776.826V214.368H745.888ZM761.357 82.8812C756.357 82.8812 752.216 81.2405 748.935 77.9592C745.653 74.5217 744.013 70.3028 744.013 65.3028C744.013 60.4589 745.653 56.3182 748.935 52.8807C752.216 49.4431 756.357 47.7244 761.357 47.7244C766.513 47.7244 770.654 49.4431 773.779 52.8807C777.06 56.3182 778.701 60.4589 778.701 65.3028C778.701 70.3028 777.06 74.5217 773.779 77.9592C770.654 81.2405 766.513 82.8812 761.357 82.8812ZM884.651 216.946C872.62 216.946 861.369 214.758 850.9 210.383C840.588 206.008 831.525 199.992 823.712 192.336C815.9 184.523 809.806 175.461 805.431 165.148C801.212 154.679 799.103 143.507 799.103 131.632C799.103 119.757 801.212 108.741 805.431 98.5846C809.806 88.2719 815.822 79.2874 823.478 71.631C831.291 63.8184 840.353 57.8026 850.666 53.5838C860.979 49.2087 872.151 47.0212 884.182 47.0212C896.214 47.0212 907.386 49.2087 917.698 53.5838C928.011 57.8026 937.074 63.8184 944.886 71.631C952.699 79.2874 958.715 88.2719 962.933 98.5846C967.309 108.897 969.496 119.991 969.496 131.866C969.496 143.742 967.309 154.835 962.933 165.148C958.715 175.461 952.699 184.523 944.886 192.336C937.23 199.992 928.245 206.008 917.933 210.383C907.62 214.758 896.526 216.946 884.651 216.946ZM884.182 187.18C894.651 187.18 903.792 184.836 911.605 180.148C919.573 175.461 925.745 168.976 930.12 160.695C934.652 152.414 936.917 142.726 936.917 131.632C936.917 123.507 935.589 116.085 932.933 109.366C930.433 102.647 926.839 96.8658 922.152 92.0219C917.464 87.0219 911.917 83.1937 905.511 80.5374C899.104 77.8811 891.995 76.553 884.182 76.553C873.87 76.553 864.729 78.8967 856.76 83.5843C848.947 88.1156 842.775 94.522 838.244 102.803C833.869 111.085 831.681 120.694 831.681 131.632C831.681 139.913 832.931 147.492 835.431 154.367C838.088 161.242 841.682 167.101 846.213 171.945C850.9 176.789 856.447 180.539 862.854 183.195C869.416 185.852 876.526 187.18 884.182 187.18ZM958.949 226.555L883.479 151.085L902.698 131.632L978.402 207.336L958.949 226.555Z" fill="white"/>
<defs>
<linearGradient id="paint0_linear_7346_10659" x1="81.8358" y1="203.122" x2="81.8358" y2="244.304" gradientUnits="userSpaceOnUse">
<stop stop-color="#28272A"/>
<stop offset="0.336538" stop-color="#0E0E10"/>
</linearGradient>
<linearGradient id="paint1_linear_7346_10659" x1="82.7733" y1="203.122" x2="82.7733" y2="253.3" gradientUnits="userSpaceOnUse">
<stop stop-color="#28272A"/>
<stop offset="0.754808" stop-color="#0E0E10"/>
</linearGradient>
<linearGradient id="paint2_linear_7346_10659" x1="61.3406" y1="49.8623" x2="61.3406" y2="253.297" gradientUnits="userSpaceOnUse">
<stop stop-color="#28272A"/>
<stop offset="0.754808" stop-color="#0E0E10"/>
</linearGradient>
<linearGradient id="paint3_linear_7346_10659" x1="161.671" y1="49.8623" x2="161.671" y2="212.248" gradientUnits="userSpaceOnUse">
<stop stop-color="#28272A"/>
<stop offset="0.336538" stop-color="#0E0E10"/>
</linearGradient>
<linearGradient id="paint4_linear_7346_10659" x1="145.009" y1="49.8623" x2="145.009" y2="151.58" gradientUnits="userSpaceOnUse">
<stop stop-color="#28272A"/>
<stop offset="0.754808" stop-color="#0E0E10"/>
</linearGradient>
<linearGradient id="paint5_linear_7346_10659" x1="110.009" y1="163.736" x2="110.009" y2="186.955" gradientUnits="userSpaceOnUse">
<stop stop-color="#28272A"/>
<stop offset="0.336538" stop-color="#0E0E10"/>
</linearGradient>
<linearGradient id="paint6_linear_7346_10659" x1="122.894" y1="163.736" x2="122.894" y2="186.955" gradientUnits="userSpaceOnUse">
<stop stop-color="#28272A"/>
<stop offset="0.754808" stop-color="#0E0E10"/>
</linearGradient>
<linearGradient id="paint7_linear_7346_10659" x1="455.949" y1="10.1885" x2="455.949" y2="244.188" gradientUnits="userSpaceOnUse">
<stop stop-color="#28272A"/>
<stop offset="0.475962" stop-color="#0E0E10"/>
</linearGradient>
</defs>
</svg>
